<svg xmlns="http://www.w3.org/2000/svg" viewBox="0 0 400 100" width="400" height="100" role="img">
<defs><clipPath id="c"><rect width="400" height="100" rx="6"/></clipPath>
<linearGradient id="g" x1="0" x2="1"><stop offset="0" stop-color="#ff6a00" stop-opacity=".9"/><stop offset=".45" stop-color="#ff6a00" stop-opacity="0"/></linearGradient></defs>
<g clip-path="url(#c)">
<rect width="400" height="100" fill="#0b0b0f"/>
<polygon points="250,0 300,0 230,100 180,100" fill="#a3ff12" opacity=".16"/>
<polygon points="312,0 330,0 260,100 242,100" fill="#a3ff12" opacity=".3"/>
<g transform="translate(18 14)" stroke="#a3ff12" stroke-width="7" stroke-linecap="round" fill="none">
  <path d="M8 4 L34 40"/><path d="M40 48 L52 64 L74 64"/>
  <path d="M34 40 l3 -6 M34 40 l6 2" stroke-width="3"/><path d="M40 48 l-4 4 M40 48 l-6 -2" stroke-width="3"/>
</g>
<text x="106" y="54" font-family="Impact, Haettenschweiler, 'Arial Narrow Bold', 'Arial Black', sans-serif" font-size="46" fill="#ffffff" textLength="136" lengthAdjust="spacingAndGlyphs" font-style="italic" font-weight="900">ROBERT</text>
<text x="250" y="54" font-family="Impact, Haettenschweiler, 'Arial Narrow Bold', 'Arial Black', sans-serif" font-size="46" fill="#a3ff12" textLength="120" lengthAdjust="spacingAndGlyphs" font-style="italic" font-weight="900">SUCKS</text>
<text x="373" y="26" font-family="Arial, Helvetica, sans-serif" font-size="11" fill="#a3ff12">®</text>
<rect x="106" y="63" width="264" height="2.5" fill="#a3ff12"/>
<text x="107" y="83" font-family="Arial, Helvetica, sans-serif" font-size="12.5" fill="#e5e7eb" textLength="262" lengthAdjust="spacingAndGlyphs" font-weight="700">OFFICIAL SPONSOR OF MISSED OPEN NETS</text>
</g>
</svg>
